<svg width="120" height="28" viewBox="0 0 120 28" fill="none" xmlns="http://www.w3.org/2000/svg">
<path d="M120 0H0V28H120V0Z" fill="#FA4A0C"/>
<path fill-rule="evenodd" clip-rule="evenodd" d="M13.2621 20.0908L15.1266 17.785V8.48563L13.2621 10.7915V20.0908Z" fill="white"/>
<path fill-rule="evenodd" clip-rule="evenodd" d="M17.9233 20.259L16.0588 22.5648V8.30587L17.9233 6V20.259Z" fill="white"/>
<path fill-rule="evenodd" clip-rule="evenodd" d="M18.8557 19.0453V10.1252L20.7202 7.81934V16.798L18.8557 19.0453Z" fill="white"/>
<path fill-rule="evenodd" clip-rule="evenodd" d="M21.4496 15.7912V12.6106L23.3627 10.3047V13.4854L21.4496 15.7912Z" fill="white"/>
<path fill-rule="evenodd" clip-rule="evenodd" d="M10.6194 17.6303V14.4504L12.5325 12.1445V15.3244L10.6194 17.6303Z" fill="white"/>
<path d="M36.7999 12.4006C36.7999 12.7006 36.6999 13.0006 36.5999 13.4006C36.4999 13.7006 36.2999 14.0006 36.0999 14.2006C35.7999 14.5006 35.4999 14.7006 35.0999 14.8006C34.6999 14.9006 34.2999 15.0006 33.7999 15.0006H32.5999V17.4006H30.7V10.1006H33.7999C34.2999 10.1006 34.7 10.1006 35 10.2006C35.3 10.3006 35.5999 10.4006 35.7999 10.6006C36.0999 10.8006 36.3 11.0006 36.5 11.3006C36.7 11.6006 36.7999 12.0006 36.7999 12.4006ZM34.7999 12.5006C34.7999 12.3006 34.6999 12.1006 34.5999 12.0006C34.4999 11.9006 34.4 11.7006 34.2 11.7006C34 11.6006 33.7999 11.6006 33.5999 11.6006C33.3999 11.6006 33.2 11.6006 32.9 11.6006H32.5999V13.8006H33.0999C33.3999 13.8006 33.7 13.8006 33.9 13.7006C34.1 13.7006 34.3 13.6006 34.4 13.5006C34.5 13.4006 34.6 13.3006 34.7 13.1006C34.8 12.9006 34.7999 12.7006 34.7999 12.5006Z" fill="white"/>
<path d="M46.8 13.8C46.8 15 46.5 15.9 45.8 16.6C45.1 17.3 44.2 17.6 43 17.6C41.8 17.6 40.9 17.3 40.3 16.6C39.6 15.9 39.3 15 39.3 13.8C39.3 12.6 39.6 11.7 40.3 11C41 10.3 41.9 10 43 10C44.2 10 45.1001 10.3 45.7001 11C46.4001 11.7 46.8 12.6 46.8 13.8ZM44.3 15.6C44.5 15.4 44.6001 15.1 44.7001 14.8C44.8001 14.5 44.8 14.1 44.8 13.7C44.8 13.3 44.7 12.9 44.6 12.6C44.5 12.3 44.4001 12 44.2001 11.9C44.0001 11.7 43.8 11.6 43.6 11.5C43.4 11.4 43.2001 11.4 42.9001 11.4C42.7001 11.4 42.4001 11.4 42.2001 11.5C42.0001 11.6 41.8 11.7 41.6 11.9C41.4 12.1 41.3001 12.3 41.2001 12.7C41.1001 13 41 13.4 41 13.8C41 14.2 41 14.6 41.1 14.9C41.2 15.2 41.3 15.5 41.5 15.6C41.7 15.7 41.9 15.9 42.1 16C42.3 16.1 42.5 16.1 42.8 16.1C43.1 16.1 43.3 16.1 43.5 16C43.9 15.9 44.1 15.8 44.3 15.6Z" fill="white"/>
<path d="M56.7999 17.4006H54.5L52.5 14.7006H51.5999V17.4006H49.7V10.1006H52.7999C53.1999 10.1006 53.6 10.1006 53.9 10.2006C54.2 10.3006 54.4999 10.4006 54.7999 10.5006C55.0999 10.7006 55.3 10.9006 55.5 11.1006C55.7 11.4006 55.7 11.7006 55.7 12.1006C55.7 12.6006 55.5999 13.1006 55.2999 13.4006C54.9999 13.7006 54.7 14.0006 54.2 14.2006L56.7999 17.4006ZM53.9 12.4006C53.9 12.2006 53.8999 12.1006 53.7999 11.9006C53.6999 11.7006 53.6 11.7006 53.4 11.6006C53.3 11.5006 53.1 11.5006 53 11.5006C52.8 11.5006 52.6 11.5006 52.4 11.5006H51.7V13.5006H52.2999C52.5999 13.5006 52.7999 13.5006 53.0999 13.5006C53.3999 13.5006 53.4999 13.4006 53.5999 13.3006C53.6999 13.2006 53.8 13.1006 53.9 13.0006C53.8 12.7006 53.9 12.6006 53.9 12.4006Z" fill="white"/>
<path d="M64.9 11.5006H62.6V17.4006H60.7V11.5006H58.4V10.1006H64.8V11.5006H64.9Z" fill="white"/>
<path d="M72.8 11.5006H69.5V12.9006H72.6V14.3006H69.5V17.4006H67.6V10.1006H72.8V11.5006Z" fill="white"/>
<path d="M82.8 13.8C82.8 15 82.5 15.9 81.8 16.6C81.1 17.3 80.2 17.6 79 17.6C77.8 17.6 76.9 17.3 76.3 16.6C75.6 15.9 75.3 15 75.3 13.8C75.3 12.6 75.6 11.7 76.3 11C77 10.3 77.9 10 79 10C80.2 10 81.1 10.3 81.7 11C82.4 11.7 82.8 12.6 82.8 13.8ZM80.3 15.6C80.5 15.4 80.6 15.1 80.7 14.8C80.8 14.5 80.8 14.1 80.8 13.7C80.8 13.3 80.7 12.9 80.6 12.6C80.5 12.3 80.4 12 80.2 11.9C80 11.7 79.8 11.6 79.6 11.5C79.4 11.4 79.2 11.4 78.9 11.4C78.7 11.4 78.4 11.4 78.2 11.5C78 11.6 77.8 11.7 77.6 11.9C77.4 12.1 77.3 12.3 77.2 12.7C77.1 13 77 13.4 77 13.8C77 14.2 77 14.6 77.1 14.9C77.2 15.2 77.3 15.5 77.5 15.6C77.7 15.7 77.9 15.9 78.1 16C78.3 16.1 78.5 16.1 78.8 16.1C79.1 16.1 79.3 16.1 79.5 16C79.9 15.9 80.1 15.8 80.3 15.6Z" fill="white"/>
<path d="M91 17.4006H85.8V10.1006H87.7V16.0006H91V17.4006Z" fill="white"/>
<path d="M97.7 17.4006H93.4V16.1006H94.6V11.4006H93.4V10.1006H97.7V11.4006H96.5V16.1006H97.7V17.4006Z" fill="white"/>
<path d="M107.9 13.8C107.9 15 107.6 15.9 106.9 16.6C106.2 17.3 105.3 17.6 104.1 17.6C102.9 17.6 102 17.3 101.4 16.6C100.7 15.9 100.4 15 100.4 13.8C100.4 12.6 100.7 11.7 101.4 11C102.1 10.3 103 10 104.1 10C105.3 10 106.2 10.3 106.8 11C107.5 11.7 107.9 12.6 107.9 13.8ZM105.4 15.6C105.6 15.4 105.7 15.1 105.8 14.8C105.9 14.5 105.9 14.1 105.9 13.7C105.9 13.3 105.8 12.9 105.7 12.6C105.6 12.3 105.5 12 105.3 11.9C105.1 11.7 104.9 11.6 104.7 11.5C104.5 11.4 104.3 11.4 104 11.4C103.8 11.4 103.5 11.4 103.3 11.5C103.1 11.6 102.9 11.7 102.7 11.9C102.5 12.1 102.4 12.3 102.3 12.7C102.2 13 102.1 13.4 102.1 13.8C102.1 14.2 102.1 14.6 102.2 14.9C102.3 15.2 102.4 15.5 102.6 15.6C102.8 15.7 103 15.9 103.2 16C103.4 16.1 103.6 16.1 103.9 16.1C104.2 16.1 104.4 16.1 104.6 16C105 15.9 105.2 15.8 105.4 15.6Z" fill="white"/>
</svg>
